<svg xmlns="http://www.w3.org/2000/svg" viewBox="0 0 300 181.7"><defs><style>.cls-1{fill:#3cc6af;}.cls-2{fill:#2b3c73;}</style></defs><title>logo</title><g id="Layer_2" data-name="Layer 2"><g id="Layer_1-2" data-name="Layer 1"><polyline class="cls-1" points="300 135.99 226.22 181.7 226.22 91.58 300 135.99"/><polygon class="cls-2" points="226.22 0 226.22 91.56 150.56 46 226.22 0"/><polygon class="cls-1" points="150.56 46 75.42 91.43 75.42 0 150.56 46"/><polygon class="cls-2" points="75.42 0 75.42 91.43 0 46 75.42 0"/><polygon class="cls-2" points="226.22 91.58 226.22 181.7 149.94 136.04 226.22 91.58"/><polygon class="cls-2" points="150.56 46 149.94 136.04 75.42 91.43 150.56 46"/><polygon class="cls-1" points="149.94 136.04 75.42 181.7 75.42 91.43 149.94 136.04"/><polygon class="cls-1" points="226.22 91.58 149.94 136.04 150.56 46 226.22 91.58"/></g></g></svg>